<?xml version="1.0" encoding="utf-8"?>
<!-- Generator: Adobe Illustrator 21.0.0, SVG Export Plug-In . SVG Version: 6.00 Build 0)  -->
<svg version="1.1" id="Layer_1" xmlns="http://www.w3.org/2000/svg" xmlns:xlink="http://www.w3.org/1999/xlink" x="0px" y="0px"
	 viewBox="0 0 2000 2000" style="enable-background:new 0 0 2000 2000;" xml:space="preserve">
<path d="M1230.2,1536.1c-49.2,32.9-70.3,96.9-48.2,152.2c0.2,0.6,0.6,1.1,0.9,1.6c0.2,0.6,0.2,1.3,0.5,1.9
	c20.3,47.7,70,79.3,121.9,76.7c53.2-2.7,99.9-38.6,115.7-89.6c15.9-51.2-3.7-107-46-139C1333.5,1508.7,1273.4,1507.3,1230.2,1536.1z
	 M1344.8,1556c35.9,19.1,57.3,59.6,51.1,100.2c-6.3,41-38.1,73.4-78.7,81.3c-45.4,8.8-88.8-17.6-107.1-58.7
	c-14.2-37.6-6.3-79.8,23.6-107.8C1263.2,1543.3,1308.9,1536.9,1344.8,1556z M276.6,843.3c46,19.5,92.3,38.5,138.4,57.7
	c161,67.1,322,134.2,483,201.2c42.4,17.7,84.9,35.4,127.3,53.1c0.1,0,0.1,0,0.1,0c6.4,3.4,13.3,5.8,20.3,7.6
	c46.2,112.3,92.5,224.6,138.7,336.9c-61.1,50.3-85.1,135.7-55.3,210.3c0.2,0.7,0.7,1,1,1.6c0.2,0.7,0.1,1.3,0.4,1.9
	c29.6,69.8,101.6,115.8,177.6,112.1c77-3.8,144.6-56.2,167.4-129.8c22.9-73.9-4.8-155.2-66.1-201.5c-36.7-27.7-83-39.2-127.9-34.9
	c-39.3-95.6-78.7-191.2-118-286.7c97,40.4,194,80.9,291.1,121.3c-3.7,35.4,2.3,71.8,19.4,104.6c35.6,68.1,112.6,107,188.4,96.4
	c75.5-10.6,138.9-69.2,154.3-144.1c17.5-85-27.6-172.2-107.3-206.7c-0.7-0.3-1.2-0.2-1.9-0.4c-0.7-0.4-1.1-0.9-1.8-1.2
	c-70.3-28.2-153.7-10.2-204.8,46.3c-2.3,2.5-4,5.3-6.1,7.9c-113.4-47.2-226.8-94.5-340.1-141.7c-2.1-8.6-5.3-16.8-9.7-24.5
	c-0.4-0.7-0.8-1.3-1.2-2c-0.2-0.8-0.3-1.6-0.6-2.3C1041.5,779.2,939.7,532,837.9,284.7c-36.5-88.7-128-140.1-221.6-101.5
	c-8.5,3.5-9.4,11.3-6.1,17.6c0.2,0.9,0.1,1.7,0.5,2.6c96.9,235.4,193.8,470.7,290.7,706.1c-197.5-82.3-395-164.6-592.6-246.9
	c-37-15.4-74-30.8-111-46.3c-8.4-3.5-14.5,1.3-16.8,8.1c-0.5,0.8-1.1,1.3-1.5,2.3C142.6,715.3,192.5,807.8,276.6,843.3z
	 M643.4,205.4c62.4-18.4,131,13.1,159.3,71.7c4.6,9.6,8.4,19.7,12.4,29.5c21.9,53.3,43.9,106.5,65.8,159.8
	c63,153.2,126.1,306.4,189.1,459.5c8.3,20.2,16.7,40.5,25,60.7c-6.1-2.1-12.3-3.4-18.7-4.2c-45.5-19-91-37.9-136.4-56.8
	C854,717.1,768.2,508.6,682.3,300C669.3,268.5,656.3,236.9,643.4,205.4z M1696.3,1170.8c58.7,26.4,97.4,83.9,94.7,149.2
	c-2.7,64-46.9,121.3-108,140.2c-62.8,19.4-133.3-3.5-171.5-57.3c-37.1-52.2-37.8-122.7-2.6-175.9
	C1549.7,1165.3,1628.7,1144.6,1696.3,1170.8z M1460,1264.4c-107-44.6-214-89.2-321-133.8c8.1-10.4,14-22.6,16.7-35.7
	c0.5-2.3,0.5-4.7,0.8-7.1c107.1,44.7,214.3,89.3,321.4,133.9C1470.3,1235.4,1464.1,1249.6,1460,1264.4z M1371.7,1505.5
	c57.3,30.4,90.9,95.5,80.7,159.9c-10.2,64.4-60.4,115.8-124.3,128.2c-72,13.9-142-27.3-170.8-93.1c-22.8-59.5-9.8-127.1,37.3-171.3
	C1241.8,1485,1314.5,1475.1,1371.7,1505.5z M1209.2,1482.6c-43.6-105.8-87.1-211.6-130.7-317.4c0.8-0.1,1.7,0,2.5-0.2
	c12-1.8,23.4-6.3,33.6-12.6c3.5,1.4,7,2.9,10.5,4.3c42.3,102.7,84.5,205.3,126.8,308C1237,1468.7,1222.8,1474.9,1209.2,1482.6z
	 M1128.1,1078.9c-1.1,24.7-18.4,47.3-42.1,54.6c-24.5,7.6-51.9-0.8-67.3-21.7c-15.3-20.8-15.4-48.9-1.2-70.2
	c16.2-24.4,47.1-31.5,73.5-21.6C1114.1,1030.9,1129.2,1052.8,1128.1,1078.9z M971.8,970.8c19,7.9,38,15.8,57,23.8
	c-10.3,4.8-19.9,11.4-27.6,20c-22.4,24.8-29.5,59.8-18.8,90.9C758.6,1012.3,534.9,919,311.1,825.8c-10.9-4.5-22-8.7-32.7-13.6
	c-62.3-28.5-93.9-97.2-75.7-161.8C459.1,757.2,715.5,864,971.8,970.8z M1543.4,1227.4c-35.7,39.4-43.4,97.6-18.7,144.8
	c24.6,47.1,78,73.7,130.3,66.2c51.6-7.4,95.1-47.6,105.7-98.9c12-58.2-18.4-118.7-73.2-142.4c-0.7-0.3-1.5-0.4-2.2-0.6
	c-0.5-0.3-0.9-0.7-1.4-0.9C1635.8,1176.3,1578.3,1188.8,1543.4,1227.4z M1674.3,1223.6c36.9,16.9,61.3,52.7,59.5,94
	c-1.7,40-29.5,76.1-67.7,87.9c-39.4,12.2-83.6-1.8-107.8-35.6c-23.8-33-24.1-77.6-1.8-111.4
	C1582.2,1219.8,1631.8,1207.4,1674.3,1223.6z"/>
</svg>
